<svg xmlns="http://www.w3.org/2000/svg" xmlns:xlink="http://www.w3.org/1999/xlink" version="1.1" x="0px" y="0px" viewBox="0 0 100 125" enable-background="new 0 0 100 100" xml:space="preserve"><g><path d="M93.95,48.056c-0.908-6.453-2.576-12.74-6.315-17.988C79.978,19.319,69.452,13.509,57.12,11.662   c-5.367-0.804-10.905-0.616-16.351-0.423c-6.717,0.238-12.938,2.559-18.582,6.464c-3.464,2.396-6.835,5.219-8.554,9.192   C10.506,34.123,7.264,41.372,6.2,49.422c-0.537,4.061-0.028,8.444-0.028,13.144c1.522,5.648,1.583,7.272,4.389,9.934   c5.393,5.116,8.51,8.699,15.929,10.344c1.531,0.34,3.027,1.067,4.422,1.853c2.866,1.615,5.954,2.196,9.093,2.836   c8.099,1.651,16.28,1.408,24.434,1.348c3.355-0.025,6.731-1.009,10.047-1.796c2.955-0.701,5.484-2.403,7.401-4.915   c3.165-4.149,6.137-8.433,7.533-13.712c1.356-5.125,2.867-10.205,4.153-15.349C93.977,51.496,94.18,49.69,93.95,48.056z    M88.891,53.92c-2.238,8.476-4.878,16.648-9.501,23.962c-6.351,2.287-12.505,4.695-19.061,5.736   c-5.234,0.831-10.386,0.87-15.54-0.502c-4.629-1.233-9.272-2.407-13.92-3.558c-5.226-1.294-9.639-4.377-13.984-7.466   c-4.568-4.021-5.467-11.133-6.346-19.055c0.81-2.988,1.982-5.865,3.005-8.786c0.236-0.676,0.825-1.362,0.758-1.983   c-0.462-4.273,2.274-7.031,3.811-10.461c2.283-5.096,6.128-8.007,10.43-9.932c8.858-3.962,17.968-6.693,27.885-4.029   c3.685,0.99,7.585,1.159,11.22,2.664c6.257,2.592,12.005,6.427,16.169,11.759C88.505,38.27,91.126,45.455,88.891,53.92z"/><path d="M51.471,38.699c-5.248-0.018-9.724,1.965-14.088,5.101c-0.824,2.171-1.701,4.484-2.524,6.651   c0.825,2.203,1.54,4.112,1.814,4.844c5.98,7.47,12.532,10.011,21.035,7.276c1.305-1.112,2.858-2.436,4.804-4.094   c0.291-2.292,0.606-4.303,0.78-6.325c0.097-1.127,0.073-2.291-0.091-3.409C62.258,42.323,57.961,38.721,51.471,38.699z"/></g><text x="0" y="115" fill="#000000" font-size="5px" font-weight="bold" font-family="'Helvetica Neue', Helvetica, Arial-Unicode, Arial, Sans-serif">Created by Christopher T. Howlett</text><text x="0" y="120" fill="#000000" font-size="5px" font-weight="bold" font-family="'Helvetica Neue', Helvetica, Arial-Unicode, Arial, Sans-serif">from the Noun Project</text></svg>