<svg xmlns="http://www.w3.org/2000/svg" xmlns:xlink="http://www.w3.org/1999/xlink" version="1.1" x="0px" y="0px" viewBox="0 0 100 125" enable-background="new 0 0 100 100" xml:space="preserve"><path d="M6.172,62.566c0-4.7-0.509-9.083,0.028-13.144c1.065-8.049,4.307-15.298,7.434-22.527c1.719-3.973,5.09-6.796,8.554-9.192  c5.644-3.904,11.865-6.225,18.582-6.464c5.446-0.193,10.985-0.381,16.351,0.423c12.332,1.847,22.858,7.657,30.515,18.406  c3.739,5.249,5.408,11.535,6.315,17.989c0.23,1.634,0.027,3.44-0.377,5.053c-1.287,5.144-2.798,10.224-4.153,15.349  c-1.396,5.279-4.368,9.563-7.533,13.712c-1.917,2.513-4.446,4.215-7.401,4.915c-3.316,0.786-6.692,1.771-10.047,1.796  c-8.154,0.061-16.335,0.303-24.434-1.348c-3.139-0.64-6.227-1.221-9.093-2.836c-1.395-0.786-2.891-1.513-4.422-1.853  C19.071,81.2,15.954,77.616,10.561,72.5C7.755,69.838,7.694,68.214,6.172,62.566z M79.39,77.882  c4.623-7.314,7.263-15.486,9.501-23.962c2.235-8.465-0.385-15.649-5.074-21.652c-4.165-5.332-9.912-9.166-16.17-11.759  c-3.635-1.506-7.534-1.674-11.22-2.664c-9.917-2.664-19.028,0.067-27.885,4.029c-4.303,1.925-8.147,4.836-10.43,9.932  c-1.537,3.43-4.272,6.189-3.811,10.461c0.067,0.621-0.521,1.308-0.758,1.983c-1.022,2.921-2.195,5.798-3.005,8.786  c0.88,7.922,1.778,15.034,6.346,19.055c4.344,3.089,8.758,6.172,13.984,7.466c4.648,1.151,9.291,2.326,13.92,3.558  c5.154,1.372,10.306,1.333,15.54,0.502C66.884,82.577,73.039,80.168,79.39,77.882z"/><text x="0" y="115" fill="#000000" font-size="5px" font-weight="bold" font-family="'Helvetica Neue', Helvetica, Arial-Unicode, Arial, Sans-serif">Created by Christopher T. Howlett</text><text x="0" y="120" fill="#000000" font-size="5px" font-weight="bold" font-family="'Helvetica Neue', Helvetica, Arial-Unicode, Arial, Sans-serif">from the Noun Project</text></svg>